<?xml version="1.0" encoding="UTF-8"?>
<!DOCTYPE svg PUBLIC "-//W3C//DTD SVG 1.1//EN" "http://www.w3.org/Graphics/SVG/1.1/DTD/svg11.dtd">
<svg xmlns="http://www.w3.org/2000/svg" version="1.1" width="500px" height="500px" style="shape-rendering:geometricPrecision; text-rendering:geometricPrecision; image-rendering:optimizeQuality; fill-rule:evenodd; clip-rule:evenodd" xmlns:xlink="http://www.w3.org/1999/xlink">
<g><path style="opacity:0.004" fill="#fefffe" d="M 372.5,2.5 C 373.833,3.16667 373.833,3.16667 372.5,2.5 Z"/></g>
<g><path style="opacity:0.004" fill="#fefffe" d="M 272.5,11.5 C 273.833,12.1667 273.833,12.1667 272.5,11.5 Z"/></g>
<g><path style="opacity:0.004" fill="#fefffe" d="M 206.5,14.5 C 207.833,15.1667 207.833,15.1667 206.5,14.5 Z"/></g>
<g><path style="opacity:0.004" fill="#fefffe" d="M 333.5,19.5 C 334.833,20.1667 334.833,20.1667 333.5,19.5 Z"/></g>
<g><path style="opacity:0.004" fill="#fefffe" d="M 392.5,30.5 C 393.833,31.1667 393.833,31.1667 392.5,30.5 Z"/></g>
<g><path style="opacity:0.004" fill="#fefffe" d="M 436.5,50.5 C 437.833,51.1667 437.833,51.1667 436.5,50.5 Z"/></g>
<g><path style="opacity:0.004" fill="#fefffe" d="M 339.5,54.5 C 340.833,55.1667 340.833,55.1667 339.5,54.5 Z"/></g>
<g><path style="opacity:0.004" fill="#fefffe" d="M 23.5,56.5 C 24.8333,57.1667 24.8333,57.1667 23.5,56.5 Z"/></g>
<g><path style="opacity:0.004" fill="#fefffe" d="M 218.5,76.5 C 219.833,77.1667 219.833,77.1667 218.5,76.5 Z"/></g>
<g><path style="opacity:0.004" fill="#fefffe" d="M 286.5,82.5 C 287.833,83.1667 287.833,83.1667 286.5,82.5 Z"/></g>
<g><path style="opacity:0.004" fill="#fefffe" d="M 387.5,95.5 C 388.833,96.1667 388.833,96.1667 387.5,95.5 Z"/></g>
<g><path style="opacity:0.004" fill="#fefffe" d="M 367.5,97.5 C 368.833,98.1667 368.833,98.1667 367.5,97.5 Z"/></g>
<g><path style="opacity:0.004" fill="#fefffe" d="M 491.5,97.5 C 492.833,98.1667 492.833,98.1667 491.5,97.5 Z"/></g>
<g><path style="opacity:0.004" fill="#fefffe" d="M 254.5,110.5 C 255.833,111.167 255.833,111.167 254.5,110.5 Z"/></g>
<g><path style="opacity:0.004" fill="#fefffe" d="M 313.5,118.5 C 314.833,119.167 314.833,119.167 313.5,118.5 Z"/></g>
<g><path style="opacity:0.004" fill="#fefffe" d="M 472.5,119.5 C 473.833,120.167 473.833,120.167 472.5,119.5 Z"/></g>
<g><path style="opacity:0.004" fill="#fefffe" d="M 133.5,131.5 C 134.833,132.167 134.833,132.167 133.5,131.5 Z"/></g>
<g><path style="opacity:0.004" fill="#fefffe" d="M 105.5,135.5 C 106.833,136.167 106.833,136.167 105.5,135.5 Z"/></g>
<g><path style="opacity:0.004" fill="#fefffe" d="M 342.5,143.5 C 343.833,144.167 343.833,144.167 342.5,143.5 Z"/></g>
<g><path style="opacity:0.004" fill="#fefffe" d="M 197.5,148.5 C 198.833,149.167 198.833,149.167 197.5,148.5 Z"/></g>
<g><path style="opacity:0.004" fill="#fefffe" d="M 117.5,161.5 C 118.833,162.167 118.833,162.167 117.5,161.5 Z"/></g>
<g><path style="opacity:0.004" fill="#fefffe" d="M 389.5,163.5 C 390.833,164.167 390.833,164.167 389.5,163.5 Z"/></g>
<g><path style="opacity:0.004" fill="#fefffe" d="M 377.5,171.5 C 378.833,172.167 378.833,172.167 377.5,171.5 Z"/></g>
<g><path style="opacity:1" fill="#151515" d="M 194.5,222.5 C 193.167,222.5 192.5,221.833 192.5,220.5C 195.719,195.559 184.886,181.559 160,178.5C 145.069,179.457 134.735,186.79 129,200.5C 121.949,223.42 124.115,245.42 135.5,266.5C 135.427,268.027 136.094,269.027 137.5,269.5C 139.823,272.126 142.157,274.793 144.5,277.5C 144.833,278.5 145.5,279.167 146.5,279.5C 158.056,288.805 171.056,291.638 185.5,288C 188.941,286.224 192.108,284.057 195,281.5C 195.667,272.167 195.667,262.833 195,253.5C 193.571,250.354 191.071,248.521 187.5,248C 179.185,247.112 170.851,246.446 162.5,246C 163.167,245.333 163.833,244.667 164.5,244C 187.498,243.5 210.498,243.333 233.5,243.5C 235.027,243.573 236.027,242.906 236.5,241.5C 236.842,240.662 237.508,240.328 238.5,240.5C 240.099,240.232 241.432,240.566 242.5,241.5C 235.136,257.664 236.636,272.997 247,287.5C 252.941,292.554 259.774,295.554 267.5,296.5C 271.167,297.167 274.833,297.833 278.5,298.5C 260.848,303.01 244.182,300.51 228.5,291C 224.377,288.066 221.71,284.232 220.5,279.5C 219.91,278.234 219.41,276.901 219,275.5C 218.185,280.352 218.352,285.019 219.5,289.5C 219.427,291.027 220.094,292.027 221.5,292.5C 223.284,292.893 224.95,293.559 226.5,294.5C 215.5,295.833 204.5,295.833 193.5,294.5C 193.578,291.748 193.745,289.082 194,286.5C 184.315,295.31 172.815,299.643 159.5,299.5C 147.782,299.038 137.116,295.705 127.5,289.5C 127.027,288.094 126.027,287.427 124.5,287.5C 104.268,272.675 95.7678,252.675 99,227.5C 99.7737,221.374 101.607,215.708 104.5,210.5C 105.906,210.027 106.573,209.027 106.5,207.5C 107.34,205.147 108.674,203.147 110.5,201.5C 111.906,201.027 112.573,200.027 112.5,198.5C 113.5,196.833 114.833,195.5 116.5,194.5C 119.089,193.581 121.089,191.914 122.5,189.5C 145.137,174.149 169.803,170.315 196.5,178C 204.726,180.78 211.392,185.614 216.5,192.5C 209.497,202.823 202.163,212.823 194.5,222.5 Z M 225.5,246.5 C 226.492,246.328 227.158,246.662 227.5,247.5C 225.873,249.63 224.04,251.63 222,253.5C 220.991,255.025 220.491,256.692 220.5,258.5C 219.532,256.393 219.198,254.059 219.5,251.5C 220.865,249.14 222.865,247.473 225.5,246.5 Z"/></g>
<g><path style="opacity:1" fill="#161616" d="M 352.5,227.5 C 351.761,227.631 351.094,227.464 350.5,227C 351.823,226.184 352.489,225.017 352.5,223.5C 355.255,213.144 355.088,202.81 352,192.5C 345.042,180.731 334.876,176.565 321.5,180C 311.212,184.073 307.379,191.573 310,202.5C 310.986,205.806 312.486,208.806 314.5,211.5C 314.5,213.5 315.5,214.5 317.5,214.5C 326.57,220.536 336.237,225.203 346.5,228.5C 347.209,229.404 348.209,229.737 349.5,229.5C 359.886,233.117 368.719,239.117 376,247.5C 385.659,269.369 379.826,285.369 358.5,295.5C 356.901,295.768 355.568,295.434 354.5,294.5C 364.791,287.013 367.291,277.347 362,265.5C 359.706,262.527 357.206,259.86 354.5,257.5C 354.027,256.094 353.027,255.427 351.5,255.5C 339.74,250.692 328.073,245.692 316.5,240.5C 315.101,239.11 313.434,238.11 311.5,237.5C 304.158,233.657 298.658,227.99 295,220.5C 290.632,224.099 285.798,226.766 280.5,228.5C 279.833,228.5 279.5,228.167 279.5,227.5C 285.091,220.122 286.925,211.788 285,202.5C 284.319,198.779 283.486,195.113 282.5,191.5C 282.573,189.973 281.906,188.973 280.5,188.5C 273.107,179.976 263.774,176.976 252.5,179.5C 251.081,178.549 249.415,178.216 247.5,178.5C 264.052,173.517 280.052,175.017 295.5,183C 297.017,184.685 298.684,186.185 300.5,187.5C 310.608,178.7 322.441,174.7 336,175.5C 350.045,174.509 361.712,179.176 371,189.5C 376.353,201.373 374.187,211.706 364.5,220.5C 360.773,223.361 356.773,225.695 352.5,227.5 Z"/></g>
<g><path style="opacity:1" fill="#131313" d="M 247.5,178.5 C 249.415,178.216 251.081,178.549 252.5,179.5C 240.402,185.405 237.068,194.739 242.5,207.5C 242.427,209.027 243.094,210.027 244.5,210.5C 247.536,213.542 250.869,216.376 254.5,219C 261.077,222.124 267.744,224.957 274.5,227.5C 276.302,228.458 278.302,229.125 280.5,229.5C 288.496,232.917 295.996,237.25 303,242.5C 305.705,241.061 308.538,240.061 311.5,239.5C 312.167,239.5 312.5,239.833 312.5,240.5C 309.989,243.698 308.655,247.364 308.5,251.5C 308.41,254.152 309.076,256.485 310.5,258.5C 311.942,264.291 311.609,270.124 309.5,276C 317.063,291.953 329.73,298.786 347.5,296.5C 349.099,296.232 350.432,296.566 351.5,297.5C 336.484,301.811 321.484,301.311 306.5,296C 304.934,295.392 303.6,294.558 302.5,293.5C 302.027,292.094 301.027,291.427 299.5,291.5C 298.883,291.389 298.383,291.056 298,290.5C 294.273,293.447 290.106,295.447 285.5,296.5C 284.508,296.672 283.842,296.338 283.5,295.5C 287.064,293.538 290.064,290.871 292.5,287.5C 293.885,286.053 293.552,285.053 291.5,284.5C 289.871,282.142 288.705,279.476 288,276.5C 287.617,270.661 287.451,264.994 287.5,259.5C 284.163,256.829 280.496,254.663 276.5,253C 265.866,248.942 255.533,244.442 245.5,239.5C 245.027,238.094 244.027,237.427 242.5,237.5C 240.223,236.551 238.223,235.218 236.5,233.5C 236.027,232.094 235.027,231.427 233.5,231.5C 222.447,219.645 220.614,206.312 228,191.5C 233.104,185.034 239.604,180.701 247.5,178.5 Z"/></g>
<g><path style="opacity:0.004" fill="#fefffe" d="M 373.5,181.5 C 374.833,182.167 374.833,182.167 373.5,181.5 Z"/></g>
<g><path style="opacity:0.004" fill="#d8d8d8" d="M 280.5,188.5 C 281.906,188.973 282.573,189.973 282.5,191.5C 281.094,191.027 280.427,190.027 280.5,188.5 Z"/></g>
<g><path style="opacity:0.914" fill="#656565" d="M 122.5,189.5 C 121.089,191.914 119.089,193.581 116.5,194.5C 117.911,192.086 119.911,190.419 122.5,189.5 Z"/></g>
<g><path style="opacity:0.004" fill="#fefffe" d="M 97.5,197.5 C 98.8333,198.167 98.8333,198.167 97.5,197.5 Z"/></g>
<g><path style="opacity:0.741" fill="#8a8a8a" d="M 112.5,198.5 C 112.573,200.027 111.906,201.027 110.5,201.5C 110.427,199.973 111.094,198.973 112.5,198.5 Z"/></g>
<g><path style="opacity:0.678" fill="#9a9a9a" d="M 242.5,207.5 C 243.906,207.973 244.573,208.973 244.5,210.5C 243.094,210.027 242.427,209.027 242.5,207.5 Z"/></g>
<g><path style="opacity:0.565" fill="#808080" d="M 106.5,207.5 C 106.573,209.027 105.906,210.027 104.5,210.5C 104.427,208.973 105.094,207.973 106.5,207.5 Z"/></g>
<g><path style="opacity:0.78" fill="#929292" d="M 314.5,211.5 C 315.833,212.167 316.833,213.167 317.5,214.5C 315.5,214.5 314.5,213.5 314.5,211.5 Z"/></g>
<g><path style="opacity:0.949" fill="#5d5d5d" d="M 192.5,220.5 C 192.5,221.833 193.167,222.5 194.5,222.5C 193.833,223.5 193.167,224.5 192.5,225.5C 191.662,225.158 191.328,224.492 191.5,223.5C 191.263,222.209 191.596,221.209 192.5,220.5 Z"/></g>
<g><path style="opacity:0.004" fill="#e4e4e4" d="M 191.5,223.5 C 191.328,224.492 191.662,225.158 192.5,225.5C 191.698,226.885 191.031,226.718 190.5,225C 190.57,224.235 190.903,223.735 191.5,223.5 Z"/></g>
<g><path style="opacity:0.004" fill="#fefffe" d="M 474.5,226.5 C 475.833,227.167 475.833,227.167 474.5,226.5 Z"/></g>
<g><path style="opacity:0.008" fill="#d4d4d4" d="M 274.5,227.5 C 276.167,227.5 277.833,227.5 279.5,227.5C 279.5,228.167 279.833,228.5 280.5,228.5C 280.5,228.833 280.5,229.167 280.5,229.5C 278.302,229.125 276.302,228.458 274.5,227.5 Z"/></g>
<g><path style="opacity:0.698" fill="#7f7f7f" d="M 352.5,223.5 C 352.489,225.017 351.823,226.184 350.5,227C 351.094,227.464 351.761,227.631 352.5,227.5C 351.5,228.167 350.5,228.833 349.5,229.5C 348.209,229.737 347.209,229.404 346.5,228.5C 348.5,226.833 350.5,225.167 352.5,223.5 Z"/></g>
<g><path style="opacity:0.776" fill="#828282" d="M 233.5,231.5 C 235.027,231.427 236.027,232.094 236.5,233.5C 234.973,233.573 233.973,232.906 233.5,231.5 Z"/></g>
<g><path style="opacity:0.612" fill="#8c8c8c" d="M 311.5,237.5 C 313.434,238.11 315.101,239.11 316.5,240.5C 315.167,240.5 313.833,240.5 312.5,240.5C 312.5,239.833 312.167,239.5 311.5,239.5C 311.5,238.833 311.5,238.167 311.5,237.5 Z"/></g>
<g><path style="opacity:0.98" fill="#626262" d="M 242.5,237.5 C 244.027,237.427 245.027,238.094 245.5,239.5C 244.5,240.167 243.5,240.833 242.5,241.5C 241.432,240.566 240.099,240.232 238.5,240.5C 240.076,239.857 241.41,238.857 242.5,237.5 Z"/></g>
<g><path style="opacity:0.004" fill="#fefffe" d="M 140.5,241.5 C 141.833,242.167 141.833,242.167 140.5,241.5 Z"/></g>
<g><path style="opacity:0.831" fill="#7b7b7b" d="M 236.5,241.5 C 236.027,242.906 235.027,243.573 233.5,243.5C 233.973,242.094 234.973,241.427 236.5,241.5 Z"/></g>
<g><path style="opacity:0.051" fill="#cacaca" d="M 225.5,246.5 C 226.601,245.402 227.934,245.235 229.5,246C 228.956,246.717 228.289,247.217 227.5,247.5C 227.158,246.662 226.492,246.328 225.5,246.5 Z"/></g>
<g><path style="opacity:0.345" fill="#9a9a9a" d="M 219.5,251.5 C 219.198,254.059 219.532,256.393 220.5,258.5C 220.291,259.922 219.791,261.255 219,262.5C 218.19,258.642 218.357,254.976 219.5,251.5 Z"/></g>
<g><path style="opacity:0.953" fill="#666666" d="M 308.5,251.5 C 309.924,253.515 310.59,255.848 310.5,258.5C 309.076,256.485 308.41,254.152 308.5,251.5 Z"/></g>
<g><path style="opacity:0.675" fill="#999999" d="M 351.5,255.5 C 353.027,255.427 354.027,256.094 354.5,257.5C 352.973,257.573 351.973,256.906 351.5,255.5 Z"/></g>
<g><path style="opacity:0.475" fill="#969696" d="M 135.5,266.5 C 136.906,266.973 137.573,267.973 137.5,269.5C 136.094,269.027 135.427,268.027 135.5,266.5 Z"/></g>
<g><path style="opacity:0.004" fill="#fefffe" d="M 490.5,271.5 C 491.833,272.167 491.833,272.167 490.5,271.5 Z"/></g>
<g><path style="opacity:0.004" fill="#fefffe" d="M 446.5,276.5 C 447.833,277.167 447.833,277.167 446.5,276.5 Z"/></g>
<g><path style="opacity:0.008" fill="#c0c0c0" d="M 144.5,277.5 C 145.833,277.5 146.5,278.167 146.5,279.5C 145.5,279.167 144.833,278.5 144.5,277.5 Z"/></g>
<g><path style="opacity:0.342" fill="#9d9d9d" d="M 220.5,279.5 C 219.521,282.625 219.187,285.958 219.5,289.5C 218.352,285.019 218.185,280.352 219,275.5C 219.41,276.901 219.91,278.234 220.5,279.5 Z"/></g>
<g><path style="opacity:0.157" fill="#b3b3b3" d="M 291.5,284.5 C 293.552,285.053 293.885,286.053 292.5,287.5C 292.443,286.391 292.11,285.391 291.5,284.5 Z"/></g>
<g><path style="opacity:0.561" fill="#838383" d="M 124.5,287.5 C 126.027,287.427 127.027,288.094 127.5,289.5C 125.973,289.573 124.973,288.906 124.5,287.5 Z"/></g>
<g><path style="opacity:0.533" fill="#8b8b8b" d="M 219.5,289.5 C 220.906,289.973 221.573,290.973 221.5,292.5C 220.094,292.027 219.427,291.027 219.5,289.5 Z"/></g>
<g><path style="opacity:0.439" fill="#989898" d="M 299.5,291.5 C 301.027,291.427 302.027,292.094 302.5,293.5C 300.973,293.573 299.973,292.906 299.5,291.5 Z"/></g>
<g><path style="opacity:0.004" fill="#fefffe" d="M 372.5,294.5 C 373.833,295.167 373.833,295.167 372.5,294.5 Z"/></g>
<g><path style="opacity:0.837" fill="#383838" d="M 193.5,294.5 C 204.5,295.833 215.5,295.833 226.5,294.5C 228.564,294.687 230.564,295.187 232.5,296C 219.154,296.833 205.821,296.666 192.5,295.5C 192.624,294.893 192.957,294.56 193.5,294.5 Z"/></g>
<g><path style="opacity:0.812" fill="#7f7f7f" d="M 278.5,296.5 C 279.919,295.549 281.585,295.216 283.5,295.5C 283.842,296.338 284.508,296.672 285.5,296.5C 284.791,297.404 283.791,297.737 282.5,297.5C 281.432,296.566 280.099,296.232 278.5,296.5 Z"/></g>
<g><path style="opacity:1" fill="#414141" d="M 267.5,296.5 C 271.167,296.5 274.833,296.5 278.5,296.5C 280.099,296.232 281.432,296.566 282.5,297.5C 281.432,298.434 280.099,298.768 278.5,298.5C 274.833,297.833 271.167,297.167 267.5,296.5 Z"/></g>
<g><path style="opacity:0.922" fill="#676767" d="M 354.5,294.5 C 355.568,295.434 356.901,295.768 358.5,295.5C 356.401,296.612 354.067,297.279 351.5,297.5C 350.432,296.566 349.099,296.232 347.5,296.5C 349.657,295.593 351.99,294.927 354.5,294.5 Z"/></g>
<g><path style="opacity:0.004" fill="#fefffe" d="M 41.5,301.5 C 42.8333,302.167 42.8333,302.167 41.5,301.5 Z"/></g>
<g><path style="opacity:0.004" fill="#fefffe" d="M 116.5,306.5 C 117.833,307.167 117.833,307.167 116.5,306.5 Z"/></g>
<g><path style="opacity:0.004" fill="#fefffe" d="M 284.5,307.5 C 285.833,308.167 285.833,308.167 284.5,307.5 Z"/></g>
<g><path style="opacity:0.004" fill="#fefffe" d="M 160.5,308.5 C 161.833,309.167 161.833,309.167 160.5,308.5 Z"/></g>
<g><path style="opacity:0.004" fill="#fefffe" d="M 406.5,308.5 C 407.833,309.167 407.833,309.167 406.5,308.5 Z"/></g>
<g><path style="opacity:0.004" fill="#fefffe" d="M 408.5,328.5 C 409.833,329.167 409.833,329.167 408.5,328.5 Z"/></g>
<g><path style="opacity:0.004" fill="#fefffe" d="M 58.5,330.5 C 59.8333,331.167 59.8333,331.167 58.5,330.5 Z"/></g>
<g><path style="opacity:0.004" fill="#fefffe" d="M 404.5,341.5 C 405.833,342.167 405.833,342.167 404.5,341.5 Z"/></g>
<g><path style="opacity:0.004" fill="#fefffe" d="M 200.5,342.5 C 201.833,343.167 201.833,343.167 200.5,342.5 Z"/></g>
<g><path style="opacity:0.004" fill="#fefffe" d="M 336.5,355.5 C 337.833,356.167 337.833,356.167 336.5,355.5 Z"/></g>
<g><path style="opacity:0.004" fill="#fefffe" d="M 327.5,358.5 C 328.833,359.167 328.833,359.167 327.5,358.5 Z"/></g>
<g><path style="opacity:0.004" fill="#fefffe" d="M 478.5,362.5 C 479.833,363.167 479.833,363.167 478.5,362.5 Z"/></g>
<g><path style="opacity:0.004" fill="#fefffe" d="M 273.5,365.5 C 274.833,366.167 274.833,366.167 273.5,365.5 Z"/></g>
<g><path style="opacity:0.004" fill="#fefffe" d="M 341.5,372.5 C 342.833,373.167 342.833,373.167 341.5,372.5 Z"/></g>
<g><path style="opacity:0.004" fill="#fefffe" d="M 370.5,380.5 C 371.833,381.167 371.833,381.167 370.5,380.5 Z"/></g>
<g><path style="opacity:0.004" fill="#fefffe" d="M 395.5,381.5 C 396.833,382.167 396.833,382.167 395.5,381.5 Z"/></g>
<g><path style="opacity:0.004" fill="#fefffe" d="M 394.5,385.5 C 395.833,386.167 395.833,386.167 394.5,385.5 Z"/></g>
<g><path style="opacity:0.004" fill="#fefffe" d="M 193.5,389.5 C 194.833,390.167 194.833,390.167 193.5,389.5 Z"/></g>
<g><path style="opacity:0.004" fill="#fefffe" d="M 198.5,403.5 C 199.833,404.167 199.833,404.167 198.5,403.5 Z"/></g>
<g><path style="opacity:0.004" fill="#fefffe" d="M 430.5,420.5 C 431.833,421.167 431.833,421.167 430.5,420.5 Z"/></g>
<g><path style="opacity:0.004" fill="#fefffe" d="M 257.5,421.5 C 258.833,422.167 258.833,422.167 257.5,421.5 Z"/></g>
<g><path style="opacity:0.004" fill="#fefffe" d="M 316.5,438.5 C 317.833,439.167 317.833,439.167 316.5,438.5 Z"/></g>
<g><path style="opacity:0.004" fill="#fefffe" d="M 133.5,445.5 C 134.833,446.167 134.833,446.167 133.5,445.5 Z"/></g>
<g><path style="opacity:0.004" fill="#fefffe" d="M 419.5,447.5 C 420.833,448.167 420.833,448.167 419.5,447.5 Z"/></g>
<g><path style="opacity:0.004" fill="#fefffe" d="M 385.5,449.5 C 386.833,450.167 386.833,450.167 385.5,449.5 Z"/></g>
<g><path style="opacity:0.004" fill="#fefffe" d="M 449.5,454.5 C 450.833,455.167 450.833,455.167 449.5,454.5 Z"/></g>
<g><path style="opacity:0.004" fill="#fefffe" d="M 137.5,455.5 C 138.833,456.167 138.833,456.167 137.5,455.5 Z"/></g>
<g><path style="opacity:0.004" fill="#fefffe" d="M 66.5,472.5 C 67.8333,473.167 67.8333,473.167 66.5,472.5 Z"/></g>
<g><path style="opacity:0.004" fill="#fefffe" d="M 157.5,472.5 C 158.833,473.167 158.833,473.167 157.5,472.5 Z"/></g>
<g><path style="opacity:0.004" fill="#fefffe" d="M 84.5,476.5 C 85.8333,477.167 85.8333,477.167 84.5,476.5 Z"/></g>
<g><path style="opacity:0.004" fill="#fefffe" d="M 245.5,487.5 C 246.833,488.167 246.833,488.167 245.5,487.5 Z"/></g>
<g><path style="opacity:0.004" fill="#fefffe" d="M 491.5,491.5 C 492.833,492.167 492.833,492.167 491.5,491.5 Z"/></g>
<g><path style="opacity:0.004" fill="#fefffe" d="M 392.5,499.5 C 391.833,498.167 391.833,498.167 392.5,499.5 Z"/></g>
</svg>
